<mxfile host="app.diagrams.net" agent="Mozilla/5.0 (Windows NT 10.0; Win64; x64) AppleWebKit/537.36 (KHTML, like Gecko) Chrome/141.0.0.0 Safari/537.36" version="28.1.2">
  <diagram name="Page-1" id="PTG7-swSNP4D8GQuXdGM">
    <mxGraphModel dx="2377" dy="1295" grid="1" gridSize="10" guides="1" tooltips="1" connect="1" arrows="1" fold="1" page="1" pageScale="1" pageWidth="827" pageHeight="1169" math="0" shadow="0">
      <root>
        <mxCell id="0" />
        <mxCell id="1" parent="0" />
        <mxCell id="OgWHmW9YfoaoKbY-S2Gk-12" style="edgeStyle=orthogonalEdgeStyle;rounded=0;orthogonalLoop=1;jettySize=auto;html=1;entryX=0.5;entryY=0;entryDx=0;entryDy=0;" edge="1" parent="1" source="OgWHmW9YfoaoKbY-S2Gk-1" target="OgWHmW9YfoaoKbY-S2Gk-4">
          <mxGeometry relative="1" as="geometry" />
        </mxCell>
        <mxCell id="OgWHmW9YfoaoKbY-S2Gk-1" value="START" style="ellipse;whiteSpace=wrap;html=1;" vertex="1" parent="1">
          <mxGeometry x="94" y="175" width="80" height="50" as="geometry" />
        </mxCell>
        <mxCell id="OgWHmW9YfoaoKbY-S2Gk-9" style="edgeStyle=orthogonalEdgeStyle;rounded=0;orthogonalLoop=1;jettySize=auto;html=1;entryX=0;entryY=0.5;entryDx=0;entryDy=0;" edge="1" parent="1" source="OgWHmW9YfoaoKbY-S2Gk-4" target="OgWHmW9YfoaoKbY-S2Gk-7">
          <mxGeometry relative="1" as="geometry" />
        </mxCell>
        <mxCell id="OgWHmW9YfoaoKbY-S2Gk-15" style="edgeStyle=orthogonalEdgeStyle;rounded=0;orthogonalLoop=1;jettySize=auto;html=1;entryX=0.5;entryY=0;entryDx=0;entryDy=0;" edge="1" parent="1" source="OgWHmW9YfoaoKbY-S2Gk-4" target="OgWHmW9YfoaoKbY-S2Gk-14">
          <mxGeometry relative="1" as="geometry" />
        </mxCell>
        <mxCell id="OgWHmW9YfoaoKbY-S2Gk-4" value="Is there a new version of the main module?" style="rounded=0;whiteSpace=wrap;html=1;" vertex="1" parent="1">
          <mxGeometry x="84" y="245" width="100" height="50" as="geometry" />
        </mxCell>
        <mxCell id="OgWHmW9YfoaoKbY-S2Gk-5" value="YES" style="text;html=1;align=center;verticalAlign=middle;resizable=0;points=[];autosize=1;strokeColor=none;fillColor=none;" vertex="1" parent="1">
          <mxGeometry x="184" y="245" width="50" height="30" as="geometry" />
        </mxCell>
        <mxCell id="OgWHmW9YfoaoKbY-S2Gk-6" value="NO" style="text;html=1;align=center;verticalAlign=middle;resizable=0;points=[];autosize=1;strokeColor=none;fillColor=none;" vertex="1" parent="1">
          <mxGeometry x="134" y="295" width="40" height="30" as="geometry" />
        </mxCell>
        <mxCell id="OgWHmW9YfoaoKbY-S2Gk-10" style="edgeStyle=orthogonalEdgeStyle;rounded=0;orthogonalLoop=1;jettySize=auto;html=1;entryX=1;entryY=0.5;entryDx=0;entryDy=0;" edge="1" parent="1" source="OgWHmW9YfoaoKbY-S2Gk-7" target="OgWHmW9YfoaoKbY-S2Gk-1">
          <mxGeometry relative="1" as="geometry">
            <Array as="points">
              <mxPoint x="284" y="200" />
            </Array>
          </mxGeometry>
        </mxCell>
        <mxCell id="OgWHmW9YfoaoKbY-S2Gk-7" value="Download It" style="rounded=0;whiteSpace=wrap;html=1;fillColor=#dae8fc;strokeColor=#6c8ebf;" vertex="1" parent="1">
          <mxGeometry x="234" y="245" width="100" height="50" as="geometry" />
        </mxCell>
        <mxCell id="OgWHmW9YfoaoKbY-S2Gk-18" style="edgeStyle=orthogonalEdgeStyle;rounded=0;orthogonalLoop=1;jettySize=auto;html=1;entryX=0.5;entryY=0;entryDx=0;entryDy=0;" edge="1" parent="1" source="OgWHmW9YfoaoKbY-S2Gk-14" target="OgWHmW9YfoaoKbY-S2Gk-17">
          <mxGeometry relative="1" as="geometry" />
        </mxCell>
        <mxCell id="OgWHmW9YfoaoKbY-S2Gk-14" value="User selects desired module" style="shape=parallelogram;perimeter=parallelogramPerimeter;whiteSpace=wrap;html=1;fixedSize=1;" vertex="1" parent="1">
          <mxGeometry x="79" y="325" width="110" height="50" as="geometry" />
        </mxCell>
        <mxCell id="OgWHmW9YfoaoKbY-S2Gk-32" style="edgeStyle=orthogonalEdgeStyle;rounded=0;orthogonalLoop=1;jettySize=auto;html=1;entryX=0.5;entryY=0;entryDx=0;entryDy=0;" edge="1" parent="1" source="OgWHmW9YfoaoKbY-S2Gk-17" target="OgWHmW9YfoaoKbY-S2Gk-31">
          <mxGeometry relative="1" as="geometry" />
        </mxCell>
        <mxCell id="OgWHmW9YfoaoKbY-S2Gk-17" value="Create new mod STRUCTS from modlist" style="rounded=0;whiteSpace=wrap;html=1;" vertex="1" parent="1">
          <mxGeometry x="84" y="405" width="100" height="50" as="geometry" />
        </mxCell>
        <mxCell id="OgWHmW9YfoaoKbY-S2Gk-48" style="edgeStyle=orthogonalEdgeStyle;rounded=0;orthogonalLoop=1;jettySize=auto;html=1;entryX=0.5;entryY=0;entryDx=0;entryDy=0;" edge="1" parent="1" source="OgWHmW9YfoaoKbY-S2Gk-21" target="OgWHmW9YfoaoKbY-S2Gk-42">
          <mxGeometry relative="1" as="geometry" />
        </mxCell>
        <mxCell id="OgWHmW9YfoaoKbY-S2Gk-49" style="edgeStyle=orthogonalEdgeStyle;rounded=0;orthogonalLoop=1;jettySize=auto;html=1;entryX=0.5;entryY=0;entryDx=0;entryDy=0;" edge="1" parent="1" source="OgWHmW9YfoaoKbY-S2Gk-21" target="OgWHmW9YfoaoKbY-S2Gk-43">
          <mxGeometry relative="1" as="geometry">
            <Array as="points">
              <mxPoint x="134" y="725" />
              <mxPoint x="264" y="725" />
            </Array>
          </mxGeometry>
        </mxCell>
        <mxCell id="OgWHmW9YfoaoKbY-S2Gk-50" style="edgeStyle=orthogonalEdgeStyle;rounded=0;orthogonalLoop=1;jettySize=auto;html=1;entryX=0.5;entryY=0;entryDx=0;entryDy=0;" edge="1" parent="1" source="OgWHmW9YfoaoKbY-S2Gk-21" target="OgWHmW9YfoaoKbY-S2Gk-44">
          <mxGeometry relative="1" as="geometry">
            <Array as="points">
              <mxPoint x="134" y="725" />
              <mxPoint x="384" y="725" />
            </Array>
          </mxGeometry>
        </mxCell>
        <mxCell id="OgWHmW9YfoaoKbY-S2Gk-51" style="edgeStyle=orthogonalEdgeStyle;rounded=0;orthogonalLoop=1;jettySize=auto;html=1;entryX=0.5;entryY=0;entryDx=0;entryDy=0;" edge="1" parent="1" source="OgWHmW9YfoaoKbY-S2Gk-21" target="OgWHmW9YfoaoKbY-S2Gk-45">
          <mxGeometry relative="1" as="geometry">
            <Array as="points">
              <mxPoint x="134" y="725" />
              <mxPoint x="504" y="725" />
            </Array>
          </mxGeometry>
        </mxCell>
        <mxCell id="OgWHmW9YfoaoKbY-S2Gk-52" style="edgeStyle=orthogonalEdgeStyle;rounded=0;orthogonalLoop=1;jettySize=auto;html=1;entryX=0.5;entryY=0;entryDx=0;entryDy=0;" edge="1" parent="1" source="OgWHmW9YfoaoKbY-S2Gk-21" target="OgWHmW9YfoaoKbY-S2Gk-47">
          <mxGeometry relative="1" as="geometry">
            <Array as="points">
              <mxPoint x="134" y="725" />
              <mxPoint x="624" y="725" />
            </Array>
          </mxGeometry>
        </mxCell>
        <mxCell id="OgWHmW9YfoaoKbY-S2Gk-68" style="edgeStyle=orthogonalEdgeStyle;rounded=0;orthogonalLoop=1;jettySize=auto;html=1;entryX=0.5;entryY=0;entryDx=0;entryDy=0;" edge="1" parent="1" source="OgWHmW9YfoaoKbY-S2Gk-21" target="OgWHmW9YfoaoKbY-S2Gk-67">
          <mxGeometry relative="1" as="geometry">
            <Array as="points">
              <mxPoint x="134" y="725" />
              <mxPoint x="744" y="725" />
            </Array>
          </mxGeometry>
        </mxCell>
        <mxCell id="OgWHmW9YfoaoKbY-S2Gk-21" value="User makes a choice from available tools" style="shape=parallelogram;perimeter=parallelogramPerimeter;whiteSpace=wrap;html=1;fixedSize=1;" vertex="1" parent="1">
          <mxGeometry x="79" y="665" width="110" height="50" as="geometry" />
        </mxCell>
        <mxCell id="OgWHmW9YfoaoKbY-S2Gk-41" style="edgeStyle=orthogonalEdgeStyle;rounded=0;orthogonalLoop=1;jettySize=auto;html=1;" edge="1" parent="1" source="OgWHmW9YfoaoKbY-S2Gk-24" target="OgWHmW9YfoaoKbY-S2Gk-26">
          <mxGeometry relative="1" as="geometry" />
        </mxCell>
        <mxCell id="OgWHmW9YfoaoKbY-S2Gk-24" value="Modlist GUI Loads" style="rounded=0;whiteSpace=wrap;html=1;" vertex="1" parent="1">
          <mxGeometry x="214" y="555" width="100" height="50" as="geometry" />
        </mxCell>
        <mxCell id="OgWHmW9YfoaoKbY-S2Gk-26" value="Shows directory of mods with type tags" style="rounded=0;whiteSpace=wrap;html=1;" vertex="1" parent="1">
          <mxGeometry x="328" y="555" width="100" height="50" as="geometry" />
        </mxCell>
        <mxCell id="OgWHmW9YfoaoKbY-S2Gk-35" style="edgeStyle=orthogonalEdgeStyle;rounded=0;orthogonalLoop=1;jettySize=auto;html=1;entryX=0.5;entryY=0;entryDx=0;entryDy=0;" edge="1" parent="1" source="OgWHmW9YfoaoKbY-S2Gk-31" target="OgWHmW9YfoaoKbY-S2Gk-34">
          <mxGeometry relative="1" as="geometry" />
        </mxCell>
        <mxCell id="OgWHmW9YfoaoKbY-S2Gk-31" value="Create new module STRUCT&amp;nbsp;" style="rounded=0;whiteSpace=wrap;html=1;" vertex="1" parent="1">
          <mxGeometry x="84" y="475" width="100" height="50" as="geometry" />
        </mxCell>
        <mxCell id="OgWHmW9YfoaoKbY-S2Gk-36" style="edgeStyle=orthogonalEdgeStyle;rounded=0;orthogonalLoop=1;jettySize=auto;html=1;entryX=0.5;entryY=0;entryDx=0;entryDy=0;" edge="1" parent="1" source="OgWHmW9YfoaoKbY-S2Gk-34" target="OgWHmW9YfoaoKbY-S2Gk-21">
          <mxGeometry relative="1" as="geometry" />
        </mxCell>
        <mxCell id="OgWHmW9YfoaoKbY-S2Gk-40" style="edgeStyle=orthogonalEdgeStyle;rounded=0;orthogonalLoop=1;jettySize=auto;html=1;entryX=0;entryY=0.5;entryDx=0;entryDy=0;" edge="1" parent="1" source="OgWHmW9YfoaoKbY-S2Gk-34" target="OgWHmW9YfoaoKbY-S2Gk-24">
          <mxGeometry relative="1" as="geometry" />
        </mxCell>
        <mxCell id="OgWHmW9YfoaoKbY-S2Gk-34" value="User chooses directory" style="shape=parallelogram;perimeter=parallelogramPerimeter;whiteSpace=wrap;html=1;fixedSize=1;" vertex="1" parent="1">
          <mxGeometry x="79" y="555" width="110" height="50" as="geometry" />
        </mxCell>
        <mxCell id="OgWHmW9YfoaoKbY-S2Gk-63" style="edgeStyle=orthogonalEdgeStyle;rounded=0;orthogonalLoop=1;jettySize=auto;html=1;entryX=0.5;entryY=0;entryDx=0;entryDy=0;" edge="1" parent="1" source="OgWHmW9YfoaoKbY-S2Gk-42" target="OgWHmW9YfoaoKbY-S2Gk-62">
          <mxGeometry relative="1" as="geometry" />
        </mxCell>
        <mxCell id="OgWHmW9YfoaoKbY-S2Gk-42" value="Delete all mods with tag" style="rounded=0;whiteSpace=wrap;html=1;fillColor=#f8cecc;strokeColor=#b85450;" vertex="1" parent="1">
          <mxGeometry x="84" y="755" width="100" height="50" as="geometry" />
        </mxCell>
        <mxCell id="OgWHmW9YfoaoKbY-S2Gk-57" style="edgeStyle=orthogonalEdgeStyle;rounded=0;orthogonalLoop=1;jettySize=auto;html=1;entryX=0.5;entryY=0;entryDx=0;entryDy=0;" edge="1" parent="1" source="OgWHmW9YfoaoKbY-S2Gk-43" target="OgWHmW9YfoaoKbY-S2Gk-56">
          <mxGeometry relative="1" as="geometry">
            <Array as="points">
              <mxPoint x="264" y="825" />
              <mxPoint x="384" y="825" />
            </Array>
          </mxGeometry>
        </mxCell>
        <mxCell id="OgWHmW9YfoaoKbY-S2Gk-43" value="Move all mods with tag" style="rounded=0;whiteSpace=wrap;html=1;fillColor=#ffe6cc;strokeColor=#d79b00;" vertex="1" parent="1">
          <mxGeometry x="214" y="755" width="100" height="50" as="geometry" />
        </mxCell>
        <mxCell id="OgWHmW9YfoaoKbY-S2Gk-59" style="edgeStyle=orthogonalEdgeStyle;rounded=0;orthogonalLoop=1;jettySize=auto;html=1;entryX=0.5;entryY=0;entryDx=0;entryDy=0;" edge="1" parent="1" source="OgWHmW9YfoaoKbY-S2Gk-44" target="OgWHmW9YfoaoKbY-S2Gk-56">
          <mxGeometry relative="1" as="geometry" />
        </mxCell>
        <mxCell id="OgWHmW9YfoaoKbY-S2Gk-44" value="Write mod names with tag to .txt file" style="rounded=0;whiteSpace=wrap;html=1;fillColor=#fff2cc;strokeColor=#d6b656;" vertex="1" parent="1">
          <mxGeometry x="334" y="755" width="100" height="50" as="geometry" />
        </mxCell>
        <mxCell id="OgWHmW9YfoaoKbY-S2Gk-58" style="edgeStyle=orthogonalEdgeStyle;rounded=0;orthogonalLoop=1;jettySize=auto;html=1;entryX=0.5;entryY=0;entryDx=0;entryDy=0;" edge="1" parent="1" source="OgWHmW9YfoaoKbY-S2Gk-45" target="OgWHmW9YfoaoKbY-S2Gk-56">
          <mxGeometry relative="1" as="geometry">
            <Array as="points">
              <mxPoint x="504" y="825" />
              <mxPoint x="384" y="825" />
            </Array>
          </mxGeometry>
        </mxCell>
        <mxCell id="OgWHmW9YfoaoKbY-S2Gk-45" value="ZIP all mods with tag" style="rounded=0;whiteSpace=wrap;html=1;fillColor=#d5e8d4;strokeColor=#82b366;" vertex="1" parent="1">
          <mxGeometry x="454" y="755" width="100" height="50" as="geometry" />
        </mxCell>
        <mxCell id="OgWHmW9YfoaoKbY-S2Gk-55" style="edgeStyle=orthogonalEdgeStyle;rounded=0;orthogonalLoop=1;jettySize=auto;html=1;entryX=0.5;entryY=0;entryDx=0;entryDy=0;" edge="1" parent="1" source="OgWHmW9YfoaoKbY-S2Gk-47" target="OgWHmW9YfoaoKbY-S2Gk-54">
          <mxGeometry relative="1" as="geometry" />
        </mxCell>
        <mxCell id="OgWHmW9YfoaoKbY-S2Gk-47" value="Tag a mod" style="rounded=0;whiteSpace=wrap;html=1;fillColor=#e1d5e7;strokeColor=#9673a6;" vertex="1" parent="1">
          <mxGeometry x="574" y="755" width="100" height="50" as="geometry" />
        </mxCell>
        <mxCell id="OgWHmW9YfoaoKbY-S2Gk-72" style="edgeStyle=orthogonalEdgeStyle;rounded=0;orthogonalLoop=1;jettySize=auto;html=1;entryX=0;entryY=0.5;entryDx=0;entryDy=0;" edge="1" parent="1" source="OgWHmW9YfoaoKbY-S2Gk-54" target="OgWHmW9YfoaoKbY-S2Gk-21">
          <mxGeometry relative="1" as="geometry">
            <Array as="points">
              <mxPoint x="624" y="995" />
              <mxPoint x="34" y="995" />
              <mxPoint x="34" y="690" />
            </Array>
          </mxGeometry>
        </mxCell>
        <mxCell id="OgWHmW9YfoaoKbY-S2Gk-54" value="Option to submit new tag to module author" style="rounded=0;whiteSpace=wrap;html=1;fillColor=#e1d5e7;strokeColor=#9673a6;" vertex="1" parent="1">
          <mxGeometry x="574" y="835" width="100" height="50" as="geometry" />
        </mxCell>
        <mxCell id="OgWHmW9YfoaoKbY-S2Gk-66" style="edgeStyle=orthogonalEdgeStyle;rounded=0;orthogonalLoop=1;jettySize=auto;html=1;entryX=0.5;entryY=0;entryDx=0;entryDy=0;" edge="1" parent="1" source="OgWHmW9YfoaoKbY-S2Gk-56" target="OgWHmW9YfoaoKbY-S2Gk-64">
          <mxGeometry relative="1" as="geometry" />
        </mxCell>
        <mxCell id="OgWHmW9YfoaoKbY-S2Gk-56" value="Choose Directory for operation" style="rounded=0;whiteSpace=wrap;html=1;" vertex="1" parent="1">
          <mxGeometry x="334" y="855" width="100" height="50" as="geometry" />
        </mxCell>
        <mxCell id="OgWHmW9YfoaoKbY-S2Gk-73" style="edgeStyle=orthogonalEdgeStyle;rounded=0;orthogonalLoop=1;jettySize=auto;html=1;entryX=0;entryY=0.5;entryDx=0;entryDy=0;" edge="1" parent="1" source="OgWHmW9YfoaoKbY-S2Gk-62" target="OgWHmW9YfoaoKbY-S2Gk-21">
          <mxGeometry relative="1" as="geometry">
            <Array as="points">
              <mxPoint x="134" y="995" />
              <mxPoint x="34" y="995" />
              <mxPoint x="34" y="690" />
            </Array>
          </mxGeometry>
        </mxCell>
        <mxCell id="OgWHmW9YfoaoKbY-S2Gk-62" value="User confirms" style="shape=parallelogram;perimeter=parallelogramPerimeter;whiteSpace=wrap;html=1;fixedSize=1;fillColor=#f8cecc;strokeColor=#b85450;" vertex="1" parent="1">
          <mxGeometry x="79" y="845" width="110" height="50" as="geometry" />
        </mxCell>
        <mxCell id="OgWHmW9YfoaoKbY-S2Gk-71" style="edgeStyle=orthogonalEdgeStyle;rounded=0;orthogonalLoop=1;jettySize=auto;html=1;entryX=0;entryY=0.5;entryDx=0;entryDy=0;" edge="1" parent="1" source="OgWHmW9YfoaoKbY-S2Gk-64" target="OgWHmW9YfoaoKbY-S2Gk-21">
          <mxGeometry relative="1" as="geometry">
            <Array as="points">
              <mxPoint x="384" y="995" />
              <mxPoint x="34" y="995" />
              <mxPoint x="34" y="690" />
            </Array>
          </mxGeometry>
        </mxCell>
        <mxCell id="OgWHmW9YfoaoKbY-S2Gk-64" value="User confirms" style="shape=parallelogram;perimeter=parallelogramPerimeter;whiteSpace=wrap;html=1;fixedSize=1;" vertex="1" parent="1">
          <mxGeometry x="329" y="925" width="110" height="50" as="geometry" />
        </mxCell>
        <mxCell id="OgWHmW9YfoaoKbY-S2Gk-70" style="edgeStyle=orthogonalEdgeStyle;rounded=0;orthogonalLoop=1;jettySize=auto;html=1;entryX=0.5;entryY=0;entryDx=0;entryDy=0;" edge="1" parent="1" source="OgWHmW9YfoaoKbY-S2Gk-67" target="OgWHmW9YfoaoKbY-S2Gk-69">
          <mxGeometry relative="1" as="geometry" />
        </mxCell>
        <mxCell id="OgWHmW9YfoaoKbY-S2Gk-67" value="EXIT" style="rounded=0;whiteSpace=wrap;html=1;" vertex="1" parent="1">
          <mxGeometry x="694" y="755" width="100" height="50" as="geometry" />
        </mxCell>
        <mxCell id="OgWHmW9YfoaoKbY-S2Gk-69" value="END" style="ellipse;whiteSpace=wrap;html=1;" vertex="1" parent="1">
          <mxGeometry x="704" y="835" width="80" height="50" as="geometry" />
        </mxCell>
      </root>
    </mxGraphModel>
  </diagram>
</mxfile>
